<?xml version="1.0" encoding="UTF-8" standalone="no"?>
<svg
   xmlns:dc="http://purl.org/dc/elements/1.1/"
   xmlns:cc="http://creativecommons.org/ns#"
   xmlns:rdf="http://www.w3.org/1999/02/22-rdf-syntax-ns#"
   xmlns:svg="http://www.w3.org/2000/svg"
   xmlns="http://www.w3.org/2000/svg"
   viewBox="0 0 384 384"
   height="384"
   width="384"
   xml:space="preserve"
   id="svg2"
   version="1.1"><metadata
     id="metadata8"><rdf:RDF><cc:Work
         rdf:about=""><dc:format>image/svg+xml</dc:format><dc:type
           rdf:resource="http://purl.org/dc/dcmitype/StillImage" /></cc:Work></rdf:RDF></metadata><defs
     id="defs6" /><g
     transform="matrix(1.3333333,0,0,-1.3333333,0,384)"
     id="g10"><g
       transform="scale(0.1)"
       id="g12"><path
         id="path14"
         style="fill:#f89e0e;fill-opacity:1;fill-rule:evenodd;stroke:none"
         d="M 0,0 H 2880 V 2880 H 0 Z" /><path
         id="path16"
         style="fill:#f46e16;fill-opacity:1;fill-rule:nonzero;stroke:none"
         d="M 991.727,0 H 0 v 1121.99 l 928.125,930.4 0.184,-38.29 168.061,168.48 0.63,-130.19 -168.051,-168.46 0.309,-63.17 h 114.822 l 0.09,-17.75 378.64,379.57 0.64,-130.19 -378.65,-379.57 0.41,-83.04 230.41,230.98 h 49.21 310.19 c 63.84,0 116.07,-51.89 116.38,-115.73 l 0.09,-19.03 c 0.16,-31.96 -12.72,-60.9 -33.62,-81.86 -88.29,-88.51 -176.58,-177.01 -264.86,-265.51 h 184.36 29.9 c 71.2,0 129.39,-57.81 129.73,-129.01 l 0.1,-20.11 c 0.18,-35.6 -14.18,-67.89 -37.5,-91.27 C 1649.64,988.012 1539.67,877.77 1429.71,767.551 l 0.22,-44.992 h 124.9 l 106.13,106.39 h 8.8 c 99.28,0 189.13,40.332 254.09,105.442 C 1613.13,622.93 1302.43,311.469 991.727,0" /><path
         id="path18"
         style="fill:#ffffff;fill-opacity:1;fill-rule:nonzero;stroke:none"
         d="m 1275.63,1820.76 1.22,-250.49 h 359.4 c 63.83,0 115.56,51.9 115.24,115.73 l -0.09,19.03 c -0.31,63.84 -52.54,115.73 -116.38,115.73 h -310.19 -49.2 m 521.47,-631.25 -0.1,20.11 c -0.34,71.2 -58.53,129.01 -129.72,129.01 h -29.91 -359.39 l 1.36,-278.14 h 49.2 340.09 c 71.19,0 128.82,57.91 128.47,129.02 m 114.07,284.34 c 71.52,-65.9 116.87,-159.82 117.38,-264.23 l 0.1,-20.11 c 0.97,-198.78 -160.03,-360.561 -358.89,-360.561 h -8.8 l 0.51,-106.39 h -231.54 l -0.52,106.39 h -94.9 l 0.52,-106.39 h -231.54 l -0.52,106.39 h -54.05 -114.826 l -1.129,231.541 h 114.825 l -1.35,278.14 -1.14,231.64 -1.22,250.49 H 929.258 l -1.133,231.63 H 1042.95 1097 l -0.63,130.19 h 231.54 l 0.63,-130.19 h 94.91 l -0.64,130.19 h 231.55 l 0.63,-131.27 c 181.78,-11.04 327.06,-161.88 327.96,-346.28 l 0.09,-19.03 c 0.39,-79.91 -26.64,-153.35 -71.87,-212.15" /></g></g></svg>